<?xml version="1.0" ?><svg style="enable-background:new 0 0 512 512;" version="1.1" viewBox="0 0 512 512" xml:space="preserve" xmlns="http://www.w3.org/2000/svg" xmlns:xlink="http://www.w3.org/1999/xlink"><style type="text/css">
	.st0{fill:#007EE5;}
	.st1{opacity:0.2;fill:#FFFFFF;}
	.st2{fill:#E7E7E7;}
</style><g id="outerdark"><path class="st0" d="M256.5,20C126.4,20,21,125.4,21,255.5S126.4,491,256.5,491S492,385.6,492,255.5S386.6,20,256.5,20z M256,460.5   c-112.9,0-204.5-91.6-204.5-204.5S143.1,51.5,256,51.5S460.5,143.1,460.5,256S368.9,460.5,256,460.5z"/></g><g id="outerlight"><path class="st1" d="M423.1,89l-22.4,22.4c37,37,59.8,88.1,59.8,144.6c0,112.9-91.6,204.5-204.5,204.5   c-56.4,0-107.6-22.9-144.6-59.8L90,422.1c92,92,241.1,92,333,0S515,181,423.1,89z"/></g><g id="innerdark"><circle class="st0" cx="256" cy="256" r="180"/></g><g id="Dropbox"><g><polygon class="st2" points="213.1,159.1 151.8,199.1 194.2,233.1 256,194.9   "/><polygon class="st2" points="151.8,267 213.1,307 256,271.2 194.2,233.1   "/><polygon class="st2" points="256,271.2 298.9,307 360.2,267 317.8,233.1   "/><polygon class="st2" points="360.2,199.1 298.9,159.1 256,194.9 317.8,233.1   "/><polygon class="st2" points="256.1,278.9 213.1,314.6 194.7,302.6 194.7,316.1 256.1,352.9 317.5,316.1 317.5,302.6 299.1,314.6       "/></g></g><g id="innerlight"><path class="st1" d="M128.1,382.6c-70.3-70.3-70.3-184.3,0-254.6s184.3-70.3,254.6,0"/></g></svg>